<?xml version="1.0" encoding="utf-8"?>
<!-- Generator: Adobe Illustrator 24.1.1, SVG Export Plug-In . SVG Version: 6.00 Build 0)  -->
<svg version="1.1" id="Layer_1" xmlns="http://www.w3.org/2000/svg" xmlns:xlink="http://www.w3.org/1999/xlink" x="0px" y="0px"
	 viewBox="0 0 512 512" style="enable-background:new 0 0 512 512;" xml:space="preserve">
<style type="text/css">
	.st0{fill:#FFFFFF;}
	.st1{clip-path:url(#SVGID_2_);fill:#FFFFFF;}
	.st2{clip-path:url(#SVGID_2_);fill:#FCC397;}
	.st3{clip-path:url(#SVGID_2_);fill:#FC9F95;}
	.st4{clip-path:url(#SVGID_2_);fill:#F77C88;}
	.st5{clip-path:url(#SVGID_2_);fill:#F25192;}
	.st6{clip-path:url(#SVGID_2_);fill:#D34CA3;}
	.st7{clip-path:url(#SVGID_2_);fill:#9A50A5;}
	.st8{clip-path:url(#SVGID_2_);fill:#59569E;}
	.st9{clip-path:url(#SVGID_2_);fill:#39477F;}
</style>
<g>
	<path class="st0" d="M256.7,2c140.1,0,253.7,113.6,253.7,253.7c0,140.1-113.6,253.7-253.7,253.7C116.6,509.3,3,395.8,3,255.7
		C3,115.6,116.6,2,256.7,2"/>
	<g>
		<defs>
			<polyline id="SVGID_1_" points="-0.9,0 512.9,0 512.9,512 -0.9,512 -0.9,0 			"/>
		</defs>
		<clipPath id="SVGID_2_">
			<use xlink:href="#SVGID_1_"  style="overflow:visible;"/>
		</clipPath>
		<path class="st1" d="M257.1,0h-0.6C187.9,0.1,125.5,27.1,79.5,71c-1,0.9-1.8,1.8-2.4,2.7c0.9-0.9,1.8-1.7,2.6-2.6
			c0.7,0.2,1.4,0.4,2.2,0.7C127.5,28.5,189,2,256.7,2c37.3,0,72.6,8,104.5,22.5c2,0.1,3.9,0.2,5.8,0.4c-0.1,0-0.1-0.1-0.2-0.1
			C333.6,8.9,296.4,0,257.1,0"/>
		<path class="st1" d="M79.8,71.1c-0.9,0.8-1.8,1.7-2.6,2.6c-22.3,21.9-40.7,47.9-53.8,76.7c1.1-0.6,2.2-1.2,3.3-1.8
			c13.5-29,32.4-55.1,55.3-76.9C81.3,71.5,80.5,71.3,79.8,71.1 M361.2,24.4c36.9,16.7,69.1,42,94.1,73.4c0.7-0.4,1.3-0.8,2-1.2
			c0.1,0.1,0.2,0.2,0.2,0.3c0.1-0.2,0.2-0.3,0.2-0.3c-24.2-30.3-55.1-54.9-90.5-71.7c0,0-0.1,0-0.1,0
			C365.1,24.7,363.2,24.5,361.2,24.4"/>
		<path class="st1" d="M26.7,148.6c-1.1,0.6-2.2,1.2-3.3,1.8c-0.2,0.1-0.3,0.2-0.5,0.3c-7.7,16.9-13.6,34.8-17.5,53.4
			c0.9,0.5,1.8,1.1,2.6,1.6C12,185.7,18.3,166.6,26.7,148.6 M457.3,96.6c-0.6,0.4-1.3,0.8-2,1.2c26.1,32.8,44.3,72.2,51.5,115.3
			c0.9,0.7,1.8,1.4,2.7,2.1c0.1,0.5,0.2,1.1,0.2,1.6c0.4-0.1,0.6-0.1,0.6-0.1c-7.1-44.8-25.7-85.8-52.8-119.8
			C457.4,96.8,457.4,96.7,457.3,96.6"/>
		<path class="st1" d="M506.8,213.1c2.3,13.8,3.5,28,3.5,42.5l0,0l0,0c0,1.3,0,2.6,0,3.8c0.4,0.1,0.9,0.3,1.3,0.5
			c0.6-0.1,0.9-0.2,0.9-0.2s0-2.8,0-4.3c0-13.1-1-26-2.9-38.6c-0.1-0.5-0.2-1.1-0.2-1.6C508.6,214.5,507.7,213.8,506.8,213.1
			 M4.3,203.5c-3.3,16.1-5.1,32.7-5.3,49.7v0c0,0,0,0,0.1,0c1.3-1,2.6-2,3.9-3c0.3-15.2,2-30.1,4.9-44.6c-0.9-0.5-1.8-1-2.6-1.6
			C5,203.9,4.7,203.7,4.3,203.5"/>
		<path class="st1" d="M3.1,250.3c-1.3,1-2.7,2-3.9,3c0,0,0,0-0.1,0c0,0.6,0,1.2,0,1.8v0.9c0,27.8,4.5,54.6,12.8,79.7
			c0,0.1,0.5,0.2,1.4,0.3c0-0.1-0.1-0.2-0.1-0.2c0.8-0.4,1.6-0.9,2.4-1.3C7.4,309.7,3,283.2,3,255.7l0,0l0,0
			C3,253.9,3.1,252,3.1,250.3"/>
		<path class="st1" d="M510.4,259.5c-0.3,23.5-3.9,46.2-10.2,67.8c1.1-0.7,2.2-1.5,3.3-2.2c0.1-0.1,0.2-0.2,0.2-0.4
			c5.7-20.5,8.9-42.1,9.2-64.3l0,0c-0.4-0.1-0.8-0.3-1.2-0.4C511.3,259.8,510.8,259.7,510.4,259.5"/>
		<path class="st1" d="M15.5,334.5c-0.8,0.4-1.6,0.9-2.4,1.3c0,0.1,0.1,0.2,0.1,0.2c11.4,34.5,29.8,65.8,53.7,92.1
			c0,0,0.1,0.1,0.1,0.1c1.8,0.7,3.7,1.3,5.6,2C47.1,403.3,27.3,370.7,15.5,334.5 M504.7,324.2c-0.4,0.3-0.8,0.6-1.3,0.9
			c-1.1,0.7-2.2,1.5-3.3,2.2c-5.7,19.4-13.7,37.9-23.6,55c0.7,0.1,1.5,0.2,2.2,0.2c-2.3,4-4.6,7.9-7.1,11.7c3.3-3.4,6-6.9,8.2-10.6
			C490.5,365.2,498.9,345.2,504.7,324.2"/>
		<path class="st1" d="M476.6,382.3c-43.8,75.9-125.9,127-219.8,127c-72.5,0-137.8-30.4-184.1-79.1c-1.9-0.6-3.8-1.3-5.6-2
			c-0.5-0.2-1.1-0.4-1.6-0.6c47,51.8,114.8,84.3,190.3,84.3l0,0c90.6,0,170.2-46.9,215.9-117.8c2.5-3.8,4.8-7.7,7.1-11.7
			C478.1,382.5,477.3,382.4,476.6,382.3"/>
		<path class="st2" d="M256.7,2C189,2,127.5,28.5,82,71.7c17.1,5.1,35,7.8,52.9,7.8c10.6,0,21.2-0.9,31.6-2.8
			c47.3-8.6,89.3-35.9,136-47.1c15.3-3.7,31.5-5.4,47.5-5.4c3.7,0,7.5,0.1,11.2,0.3C329.4,10,294,2,256.7,2"/>
		<path class="st3" d="M350.1,24.2c-16,0-32.3,1.8-47.5,5.4c-46.7,11.1-88.8,38.4-136,47.1c-10.4,1.9-21,2.8-31.6,2.8
			c-17.9,0-35.8-2.7-52.9-7.8c-22.9,21.8-41.8,47.8-55.3,76.9c39.3-20.7,84.8-32.8,129.2-32.8c0.9,0,1.8,0,2.7,0
			c56.4,0.6,111.8,18.7,168.2,18.7c2.1,0,4.2,0,6.3-0.1c42.7-1.1,85.7-14.5,122.3-36.7c-24.9-31.3-57.2-56.7-94.1-73.4
			C357.5,24.2,353.8,24.2,350.1,24.2"/>
		<path class="st4" d="M455.3,97.8c-36.5,22.2-79.6,35.6-122.3,36.7c-2.1,0.1-4.2,0.1-6.3,0.1c-56.4,0-111.8-18.2-168.2-18.7
			c-0.9,0-1.8,0-2.7,0c-44.4,0-89.9,12.1-129.2,32.8c-8.4,18-14.7,37.1-18.7,57.1c13.1,7.7,27.3,13.9,41.9,18.3
			c23.9-9.7,49.7-14.7,75.5-14.7c6.5,0,12.9,0.3,19.4,0.9c12.1,1.2,24,3.5,35.7,6.6c11.8-4.2,23.5-9,35.1-14
			c30-12.8,59.8-26.4,91.5-33.8c17.4-4,35.3-6,53.2-6c29.9,0,59.8,5.6,87.7,16.6c20.6,8.1,41.1,19.7,59,33.5
			C499.6,170,481.4,130.6,455.3,97.8"/>
		<path class="st5" d="M360.1,163c-17.9,0-35.8,2-53.2,6c-31.7,7.4-61.5,21.1-91.5,33.8c-11.6,4.9-23.2,9.7-35.1,14
			c23.3,6.1,46,15.2,68.2,24.8c26.9,11.6,53.6,24.1,81.4,33.1c15.5-7.5,31.3-14.1,47.9-18.9c19.3-5.5,39.5-8.2,59.7-8.2
			c24.8,0,49.6,4,72.9,11.9c0-1.3,0-2.6,0-3.8c0-14.5-1.2-28.7-3.5-42.5c-17.9-13.9-38.4-25.4-59-33.5
			C420,168.6,390.1,163,360.1,163"/>
		<path class="st5" d="M8,205.7c-2.9,14.5-4.5,29.3-4.9,44.6c10.7-8,22.8-15.2,34.7-20.9c4-1.9,8-3.7,12.1-5.4
			C35.2,219.6,21.1,213.4,8,205.7"/>
		<path class="st6" d="M125.3,209.3c-25.8,0-51.6,5-75.5,14.7c-4.1,1.7-8.1,3.4-12.1,5.4c-11.8,5.7-23.9,12.9-34.7,20.9
			c0,1.8-0.1,3.6-0.1,5.4c0,27.5,4.4,54,12.5,78.8C46.7,317.2,81.8,308,116.9,308c8.8,0,17.7,0.6,26.4,1.8
			c26.6,3.6,51.9,12.5,77.1,22.1c37.9-16,72.6-39.3,109.5-57.2c-27.8-9-54.5-21.5-81.4-33.1c-22.2-9.6-44.8-18.7-68.2-24.8
			c-11.7-3.1-23.6-5.4-35.7-6.6C138.2,209.6,131.8,209.3,125.3,209.3"/>
		<path class="st7" d="M437.5,247.6c-20.2,0-40.4,2.7-59.7,8.2c-16.6,4.7-32.4,11.3-47.9,18.9c-36.9,18-71.6,41.2-109.5,57.2
			c29.2,11.2,58.2,23.6,88.7,30.3c17.6,3.9,35.5,5.8,53.5,5.8c28.9,0,57.7-5,84.9-14.8c18.2-6.6,36.3-15.3,52.6-25.9
			c6.3-21.6,9.9-44.3,10.2-67.8C487.1,251.6,462.3,247.6,437.5,247.6"/>
		<path class="st8" d="M116.9,308c-35.1,0-70.2,9.3-101.3,26.5c11.8,36.2,31.5,68.8,57.1,95.7c5.8,1.9,11.7,3.7,17.3,5.3
			c21.7,6,44.2,9,66.7,9c23.8,0,47.7-3.4,70.5-10.1c28.5-8.4,55.2-21.7,83.1-31.8c40.7-14.7,84.6-22.1,128.2-22.1
			c12.7,0,25.4,0.6,38,1.9c9.9-17.2,17.9-35.6,23.6-55c-16.3,10.6-34.4,19.3-52.6,25.9c-27.2,9.8-56.1,14.8-84.9,14.8
			c-18,0-35.9-1.9-53.5-5.8c-30.5-6.7-59.5-19.1-88.7-30.3c-25.2-9.7-50.5-18.5-77.1-22.1C134.6,308.5,125.7,308,116.9,308"/>
		<path class="st9" d="M438.6,380.4c-43.6,0-87.4,7.4-128.2,22.1c-27.9,10.1-54.7,23.5-83.1,31.8c-22.9,6.7-46.7,10.1-70.5,10.1
			c-22.5,0-45-3-66.7-9c-5.6-1.6-11.6-3.3-17.3-5.3c46.2,48.7,111.6,79.1,184.1,79.1c94,0,176-51.1,219.8-127
			C464,381.1,451.3,380.4,438.6,380.4"/>
	</g>
</g>
</svg>
